<svg xmlns="http://www.w3.org/2000/svg"
aria-label="1Password" role="img"
viewBox="0 0 512 512"><rect
width="512" height="512"
rx="15%"
fill="#fff"/>
    <g stroke-width="7">
        <circle cx="256" cy="256" r="192" stroke="#707070" fill="#fff"/>
        <circle cx="256" cy="256" r="146" stroke="#1769b8" fill="#218ef7"/>
        <circle cx="256" cy="256" r="117" stroke="#1769b8" fill="#f7f7f7"/>
        <circle cx="256" cy="256" r="58" fill="#fff"/>
        <circle cx="256" cy="256" r="50" stroke="#c7c7c7" fill="#eaeaea"/>
        <path stroke="#fff"
          d="M223,187q0-9,9-16h44q9 0,14 9v80c0,1,0,3.25,-1,4l-4,6a6,6,0,0,0,0,8l4,6c1,1,1,2,1,4v35q0 9,-10 14h-42q-9 0,-14 -9v-78c0,-1,0,-4,1,-8l5.5,-5a6,6,0,0,0,0,-1l-5,-5a6,6,0,0,1,-1.6,-4.4z"/>
        <path stroke="#061b2c" fill="#0b2d4b"
          d="M230,187q0-9,9-9h35q9 0,9 9v72c0,1,0,3.25,-1,4l-4,6a6,6,0,0,0,0,8l4,6c1,1,1,2,1,4v35q0 9,-9 9h-35q-9 0,-9 -9v-72c0,-1,0,-3,1,-4l5,-5a6,6,0,0,0,0,-8l-5,-5a6,6,0,0,1,-1.6,-4.4z"/>
    </g>
</svg>